<?xml version="1.0" encoding="UTF-8"?>
<svg id="Layer_2" data-name="Layer 2" xmlns="http://www.w3.org/2000/svg" viewBox="0 0 339.17 229.48">
  <defs>
    <style>
      .cls-1 {
        fill: #652c8c;
      }
    </style>
  </defs>
  <g id="Layer_1-2" data-name="Layer 1">
    <g>
      <path class="cls-1" d="M254.38,213.61c-7.54,4.89-15.7,7.33-24.47,7.33-7.67,0-15.64-2.38-23.92-7.14-8.53-4.76-16.87-11.51-25.03-20.26l-80.24-86.36c-.42-.45-1.15-.14-1.15.49v66.19c0,3.18,1,5.85,3,8.04,2.33,2.54,5.71,3.73,9.09,3.73h2.74s0,1.93,0,1.93H46.54v-1.93h2.74c3.37,0,6.76-1.19,9.09-3.73,2-2.19,3-4.87,3-8.04v-108.93c0-.18-.07-.36-.19-.49-18.96-20.96-35.58-31.43-49.87-31.43-3.58,0-7.04.64-10.38,1.93l-.93-1.74c6.92-5.14,14.4-7.72,22.43-7.72,5.32,0,10.72,1.06,16.22,3.18,5.5,2.12,10.29,4.53,14.37,7.24,7.66,5.28,14.46,11.07,20.4,17.37l75.05,80.76c.42.45,1.15.14,1.15-.49v-67.35c-.12-3.19-1.19-5.88-3.22-8.07-2.32-2.51-5.66-3.69-9-3.69h-2.79s0-1.93,0-1.93h67.86v1.93h-2.66c-3.33,0-6.66,1.21-8.97,3.71-2.02,2.19-3.09,4.81-3.2,7.87l-1.66,72.27c0,.18-10.31,17.17,1.84,38.1l3.15,3.47c5.81,6.43,9.24,10.16,10.29,11.19,1.05,1.03,3.18,3.06,6.4,6.08,3.21,3.02,5.81,5.14,7.79,6.37,1.98,1.22,4.7,2.83,8.16,4.82,3.46,1.99,6.61,3.25,9.46,3.76,3.21.77,6.61,1.16,10.2,1.16s7.05-.52,10.38-1.55l.74,1.93Z"/>
      <path class="cls-1" d="M329.16,10.88c-3.59,0-8.04.58-13.35,1.74-10.38,2.31-19.47,8.36-27.25,18.14-6.55,8.23-11.31,17.94-14.28,29.14l-17.35,64.9c-.16.61-.95.7-1.24.15l-35.92-69.1-1.67-.19-32.08,69.46-3.89,4.15c-.1.21-2.95,1.36,2.59-6.14-4.34,10.5-9.4,21.65-15.09,32.54-.02.04-.04.09-.05.13-1.63,6.24-.13,10.96-3.36,16.83l-3.38,2.83c-2.47,5.66-5.69,12.22-9.64,19.68-2.84,5.4-7.54,11.7-14.09,18.91-6.3,6.82-13.6,11-21.88,12.54v1.93c3.34.64,6.49.96,9.46.96,5.56,0,11.87-2.31,18.91-6.94,2.6-1.81,5.16-3.99,7.7-6.56,2.53-2.58,5.5-5.98,8.9-10.23,3.4-4.25,6.89-10.29,10.48-18.14l33.91-72.09c.24-.51.94-.52,1.2-.02l42.03,82.53h1.85c0-7.97.86-15.11,2.6-21.42l34.49-116.73c8.53-29.07,25.34-44.57,50.43-46.5v-1.93c-3.09-.38-6.43-.58-10.01-.58Z"/>
      <path class="cls-1" d="M156.39,13.03c2.83-9.7,12.68-15.18,22-12.23s14.58,13.19,11.76,22.89c-2.83,9.7-12.68,15.18-22,12.23-9.32-2.94-14.58-13.19-11.76-22.89Z"/>
    </g>
  </g>
</svg>